<svg xmlns="http://www.w3.org/2000/svg" width="20.444" height="16" viewBox="0 0 20.444 16">
  <g id="atm" transform="translate(0 -55.652)">
    <g id="Group_2171" data-name="Group 2171" transform="translate(0 55.652)">
      <path id="Path_578" data-name="Path 578" d="M18.444,55.652H2a2,2,0,0,0-2,2v2.667a2,2,0,0,0,2,2H4v7.333a2,2,0,0,0,2,2h8.444a2,2,0,0,0,2-2V62.319h2a2,2,0,0,0,2-2V57.652A2,2,0,0,0,18.444,55.652ZM8,68.319a.667.667,0,0,1-1.333,0V66.985a.667.667,0,0,1,1.333,0Zm0-4a.667.667,0,0,1-1.333,0V62.985a.667.667,0,0,1,1.333,0Zm4.444,6H11.111V59.652h1.333Zm6.667-10a.667.667,0,0,1-.667.667h-2V59.652h.667a.667.667,0,1,0,0-1.333H3.333a.667.667,0,1,0,0,1.333H4v1.333H2a.667.667,0,0,1-.667-.667V57.652A.667.667,0,0,1,2,56.985H18.444a.667.667,0,0,1,.667.667Z" transform="translate(0 -55.652)" fill="#007aff"/>
    </g>
  </g>
</svg>
