<svg xmlns="http://www.w3.org/2000/svg" width="24" height="12.531" viewBox="0 0 24 12.531">
  <g id="bus-side-view" transform="translate(0 -132.012)">
    <path id="Path_594" data-name="Path 594" d="M4.514,140.792a1.876,1.876,0,1,0,1.875,1.876A1.878,1.878,0,0,0,4.514,140.792Zm0,3.054a1.179,1.179,0,1,1,1.179-1.179A1.18,1.18,0,0,1,4.514,143.846Zm15.041-3.054a1.876,1.876,0,1,0,1.875,1.876A1.878,1.878,0,0,0,19.556,140.792Zm0,3.054a1.179,1.179,0,1,1,1.178-1.179A1.18,1.18,0,0,1,19.556,143.846Zm3.748-3.635H24V134a1.991,1.991,0,0,0-1.991-1.991H1.991A1.991,1.991,0,0,0,0,134v7.037a1.991,1.991,0,0,0,1.991,1.992h.519a2.09,2.09,0,1,1,4.161-.282,2.165,2.165,0,0,1-.021.282h10.9a2.091,2.091,0,1,1,4.14,0H24v-.83h-.7a.2.2,0,0,1-.2-.2v-1.593A.2.2,0,0,1,23.3,140.212Zm-10.025-7.17v4.78H9.627v-4.78Zm-9.394,4.78h-.73c-1.676,0-1.642-1-1.642-1.105V133.24a.2.2,0,0,1,.2-.2H5.576v4.78Zm1.892,0v-4.78H9.427v4.78Zm11.718,0H13.476v-4.78h4.017Zm1.775-.2a.2.2,0,0,1-.2.2H17.68v-4.78H19.07a.2.2,0,0,1,.2.2Zm3.571,1.3a6.665,6.665,0,0,1-1.867-.142,1.421,1.421,0,0,1-1.106-1.1v-4.647h1.948a1.025,1.025,0,0,1,1.025,1.025v4.867h0Z" fill="#007aff"/>
  </g>
</svg>
