<svg xmlns="http://www.w3.org/2000/svg" width="18" height="12.375" viewBox="0 0 18 12.375">
  <g id="credit-card" transform="translate(0 -80)">
    <g id="Group_2168" data-name="Group 2168" transform="translate(0 84.5)">
      <g id="Group_2167" data-name="Group 2167" transform="translate(0 0)">
        <path id="Path_576" data-name="Path 576" d="M0,208v6.75a1.126,1.126,0,0,0,1.125,1.125h15.75A1.125,1.125,0,0,0,18,214.75V208Zm6.188,4.5H2.813a.562.562,0,1,1,0-1.125H6.188a.562.562,0,1,1,0,1.125Zm7.875,1.125a1.677,1.677,0,0,1-1.125-.438,1.688,1.688,0,1,1,0-2.5,1.685,1.685,0,1,1,1.125,2.937Z" transform="translate(0 -208)" fill="#007aff"/>
      </g>
    </g>
    <g id="Group_2170" data-name="Group 2170" transform="translate(0 80)">
      <g id="Group_2169" data-name="Group 2169" transform="translate(0 0)">
        <path id="Path_577" data-name="Path 577" d="M16.875,80H1.125A1.127,1.127,0,0,0,0,81.125V82.25H18V81.125A1.126,1.126,0,0,0,16.875,80Z" transform="translate(0 -80)" fill="#007aff"/>
      </g>
    </g>
  </g>
</svg>
