<svg xmlns="http://www.w3.org/2000/svg" width="36.063" height="26" viewBox="0 0 36.063 26">
  <g id="jcb_1_" data-name="jcb (1)" transform="translate(0 -69.2)">
    <path id="Path_277" data-name="Path 277" d="M4.944,69.2A4.669,4.669,0,0,0,0,74.144V83.1a2.675,2.675,0,0,0,2.676,1.919,2.377,2.377,0,0,0,2.5-2.327V78.157H9.132v4.479c0,2.5-3.2,3.781-5.526,3.781A5.986,5.986,0,0,1,.058,85.312V95.2H6.34a5.033,5.033,0,0,0,4.77-4.77V69.2Z" fill="#1174ce"/>
    <path id="Path_278" data-name="Path 278" d="M0,74.144V83.1a2.675,2.675,0,0,0,2.676,1.919,2.377,2.377,0,0,0,2.5-2.327V78.157H9.132v4.479c0,2.5-3.2,3.781-5.526,3.781A5.986,5.986,0,0,1,.058,85.312V95.2H6.34a5.033,5.033,0,0,0,4.77-4.77V69.2" fill="#0f549d"/>
    <path id="Path_279" data-name="Path 279" d="M9.074,192.4v4.479c0,2.5-3.2,3.781-5.526,3.781A5.986,5.986,0,0,1,0,199.554v9.888H6.282a5.033,5.033,0,0,0,4.77-4.77" transform="translate(0 -114.243)" fill="#02375e"/>
    <path id="Path_280" data-name="Path 280" d="M370.4,251.076h2.734a1.338,1.338,0,1,0,0-2.676H370.4Z" transform="translate(-343.469 -166.171)" fill="#146643"/>
    <path id="Path_281" data-name="Path 281" d="M349,69.2a4.624,4.624,0,0,0-4.944,4.886v4.072h7.329a1.919,1.919,0,0,1,0,3.839,1.971,1.971,0,0,1,2.094,1.861,1.936,1.936,0,0,1-2.094,1.861H344V95.2h6.282a5.033,5.033,0,0,0,4.77-4.77V69.2Z" transform="translate(-318.989)" fill="#1bcc38"/>
    <path id="Path_282" data-name="Path 282" d="M344,74.144v4.013h7.329a1.919,1.919,0,0,1,0,3.839,1.971,1.971,0,0,1,2.094,1.861,1.936,1.936,0,0,1-2.094,1.861H344V95.2h6.282a5.033,5.033,0,0,0,4.77-4.77V69.2" transform="translate(-318.989)" fill="#329947"/>
    <g id="Group_1723" data-name="Group 1723" transform="translate(25.011 78.972)">
      <path id="Path_283" data-name="Path 283" d="M353.248,218.8a1.936,1.936,0,0,1-1.919,1.919,1.971,1.971,0,0,1,2.094,1.861,1.936,1.936,0,0,1-2.094,1.861H344v9.481h6.282a5.033,5.033,0,0,0,4.77-4.77" transform="translate(-344 -217.695)" fill="#146643"/>
      <path id="Path_284" data-name="Path 284" d="M374.413,204.938a1.394,1.394,0,0,0-1.338-1.338H370.4v2.617h2.734A1.291,1.291,0,0,0,374.413,204.938Z" transform="translate(-368.481 -203.6)" fill="#146643"/>
    </g>
    <path id="Path_285" data-name="Path 285" d="M176.144,69.2a4.624,4.624,0,0,0-4.944,4.886v5a3.966,3.966,0,0,1,2.5-.989h6.631v1.4a20.69,20.69,0,0,0-3.839-.523,2.966,2.966,0,0,0,0,5.933,19.564,19.564,0,0,0,3.839-.465v1.28H173.7a3.566,3.566,0,0,1-2.5-.989V95.2h6.282a5.033,5.033,0,0,0,4.77-4.77V69.2Z" transform="translate(-158.753)" fill="#e20e37"/>
    <path id="Path_286" data-name="Path 286" d="M171.2,74.144v5a3.966,3.966,0,0,1,2.5-.989h6.631v1.4a20.69,20.69,0,0,0-3.839-.523,2.966,2.966,0,0,0,0,5.933,19.564,19.564,0,0,0,3.839-.465v1.221H173.7a3.566,3.566,0,0,1-2.5-.989V95.2h6.282a5.033,5.033,0,0,0,4.77-4.77V69.2" transform="translate(-158.753)" fill="#b41f36"/>
    <path id="Path_287" data-name="Path 287" d="M180.332,192.4v1.4a20.689,20.689,0,0,0-3.839-.523,2.966,2.966,0,0,0,0,5.933,19.564,19.564,0,0,0,3.839-.465v1.221H173.7a3.566,3.566,0,0,1-2.5-.989v10.47h6.282a5.033,5.033,0,0,0,4.77-4.77" transform="translate(-158.753 -114.243)" fill="#720a1e"/>
  </g>
</svg>
