<?xml version="1.0" encoding="utf-8"?>
<!-- Generator: Adobe Illustrator 19.0.0, SVG Export Plug-In . SVG Version: 6.00 Build 0)  -->
<svg version="1.1" id="Layer_1" xmlns="http://www.w3.org/2000/svg" xmlns:xlink="http://www.w3.org/1999/xlink" x="0px" y="0px"
	 viewBox="0 0 316.6 70.5" style="enable-background:new 0 0 316.6 70.5;" xml:space="preserve">
<style type="text/css">
	.st0{fill:url(#SVGID_1_);}
	.st1{fill:#FFFFFF;}
	.st2{fill:url(#SVGID_2_);}
</style>
<linearGradient id="SVGID_1_" gradientUnits="userSpaceOnUse" x1="241.9444" y1="57.9174" x2="283.8551" y2="57.9174">
	<stop  offset="0" style="stop-color:#F8BA17"/>
	<stop  offset="0.3111" style="stop-color:#F8B817"/>
	<stop  offset="0.4784" style="stop-color:#F7B21A"/>
	<stop  offset="0.6115" style="stop-color:#F6A81D"/>
	<stop  offset="0.7266" style="stop-color:#F59B20"/>
	<stop  offset="0.8301" style="stop-color:#F38A23"/>
	<stop  offset="0.9238" style="stop-color:#F27525"/>
	<stop  offset="1" style="stop-color:#F15C27"/>
</linearGradient>
<path class="st0" d="M262.9,56.2c-7.3,0-14.4-1.6-21-3.7c4.6,6.6,12.3,10.9,21,10.9c8.7,0,16.3-4.3,21-10.9
	C277.3,54.6,270.2,56.2,262.9,56.2z"/>
<polygon class="st1" points="211.5,5.8 203.1,5.8 193.4,20.2 183.6,5.8 175.3,5.8 189.3,26 175.3,46.8 183.5,46.8 193.4,31.9 
	203.3,46.8 211.5,46.8 197.5,26 "/>
<path class="st1" d="M166.6,34.6c-1,1.6-2.3,2.9-3.9,3.9c-2.3,1.5-4.9,2.2-7.7,2.2c-3.5,0-6.7-1.3-9.4-3.8c-2.6-2.4-4-5-4.3-8.2
	h34.3l0.1-2.2c0-5.7-2-10.7-6-14.8c-4-4.2-8.9-6.3-14.6-6.3c-5.6,0-10.5,2.1-14.5,6.2c-4,4.1-6,9-6,14.6c0,5.6,2,10.5,6,14.5
	c4,4,8.9,6.1,14.6,6.1c4.3,0,8.3-1.3,11.9-3.8c3.1-2.2,5.4-5,6.9-8.4H166.6z M145.9,15c2.6-2.3,5.7-3.5,9.2-3.5
	c3.5,0,6.6,1.2,9.2,3.5c2.3,2.1,3.8,4.7,4.6,7.8h-27.4C142,19.6,143.5,17,145.9,15z"/>
<path class="st1" d="M243.3,34.6c-1,1.6-2.3,2.9-3.9,3.9c-2.3,1.5-4.9,2.2-7.7,2.2c-3.5,0-6.7-1.3-9.4-3.8c-2.6-2.4-4-5-4.3-8.2
	h34.3l0.1-2.2c0-5.7-2-10.7-6-14.8c-4-4.2-8.9-6.3-14.6-6.3c-5.6,0-10.5,2.1-14.5,6.2c-4,4.1-6,9-6,14.6c0,5.6,2,10.5,6,14.5
	c4,4,8.9,6.1,14.6,6.1c4.3,0,8.3-1.3,11.9-3.8c3.1-2.2,5.4-5,6.9-8.4H243.3z M222.5,15c2.6-2.3,5.7-3.5,9.2-3.5
	c3.5,0,6.6,1.2,9.2,3.5c2.3,2.1,3.8,4.7,4.6,7.8H218C218.7,19.6,220.2,17,222.5,15z"/>
<path class="st1" d="M307.6,34.6c-1,1.6-2.3,2.9-3.9,3.9c-2.3,1.5-4.9,2.2-7.7,2.2c-3.5,0-6.7-1.3-9.4-3.8c-2.6-2.4-4-5-4.3-8.2
	h34.3l0.1-2.2c0-5.7-2-10.7-6-14.8c-4-4.2-8.9-6.3-14.6-6.3c-5.6,0-10.5,2.1-14.5,6.2c-4,4.1-6,9-6,14.6c0,5.6,2,10.5,6,14.5
	c4,4,8.9,6.1,14.6,6.1c4.3,0,8.3-1.3,11.9-3.8c3.1-2.2,5.4-5,6.9-8.4H307.6z M286.8,15c2.6-2.3,5.7-3.5,9.2-3.5
	c3.5,0,6.6,1.2,9.2,3.5c2.3,2.1,3.8,4.7,4.6,7.8h-27.4C283,19.6,284.5,17,286.8,15z"/>
<path class="st1" d="M276.5,5.3c-2.9,0.2-5.2,0.8-6.9,1.7c-1.2,0.7-2.3,1.6-3.2,2.7v-4h-6.8v41h1.3h5.5V33v-9.7
	c0-6,2.7-9.5,8.1-10.6l2.9-7.3V5.2L276.5,5.3z"/>
<polygon class="st1" points="101.3,61.4 101.5,61.4 112.3,61.4 115.5,52.4 106.8,52.4 87.9,6.4 79.2,6.4 "/>
<polygon class="st1" points="125.5,5.7 109.2,46.5 117.9,46.5 134.2,5.7 "/>
<linearGradient id="SVGID_2_" gradientUnits="userSpaceOnUse" x1="19.2395" y1="18.414" x2="71.2318" y2="77.7966">
	<stop  offset="0" style="stop-color:#F9C13C"/>
	<stop  offset="0.1185" style="stop-color:#F8BA17"/>
	<stop  offset="0.3595" style="stop-color:#F8B817"/>
	<stop  offset="0.489" style="stop-color:#F7B21A"/>
	<stop  offset="0.5922" style="stop-color:#F6A81D"/>
	<stop  offset="0.6813" style="stop-color:#F59B20"/>
	<stop  offset="0.7615" style="stop-color:#F38A23"/>
	<stop  offset="0.8341" style="stop-color:#F27525"/>
	<stop  offset="0.8931" style="stop-color:#F15C27"/>
</linearGradient>
<path class="st2" d="M57.9,0H3.6C1.6,0,0,1.6,0,3.6V58c0,2,1.6,3.6,3.6,3.6h2.5v4.2c0,0.1,0,0.2,0,0.3c0,2.4,2,4.4,4.4,4.4
	c2.4,0,4.4-2,4.4-4.4c0-0.1,0-0.2,0-0.3v-4.2h31.6v4.2c0,0.1,0,0.2,0,0.3c0,2.4,2,4.4,4.4,4.4c2.4,0,4.4-2,4.4-4.4
	c0-0.1,0-0.2,0-0.3v-4.2h2.5c2,0,3.6-1.6,3.6-3.6V3.6C61.4,1.6,59.8,0,57.9,0z M30.7,54.5c-6.4,0-12.1-3.2-15.6-8.1
	c4.9,1.6,10.1,2.5,15.6,2.5c5.4,0,10.7-0.9,15.6-2.5C42.8,51.3,37.1,54.5,30.7,54.5z M55.5,17.7c-2.4,0-4.4,2-4.4,4.4s2,4.4,4.4,4.4
	v11.3c0,0.3-0.2,0.5-0.5,0.5H6.6c-0.3,0-0.5-0.2-0.5-0.5V26.6c2.4,0,4.4-2,4.4-4.4s-2-4.4-4.4-4.4V6.5C6.1,6.2,6.4,6,6.6,6h48.3
	c0.3,0,0.5,0.2,0.5,0.5V17.7z"/>
</svg>
