<svg xmlns="http://www.w3.org/2000/svg" width="43.333" height="26" viewBox="0 0 43.333 26">
  <g id="mastercard" transform="translate(0 -100.8)">
    <path id="Path_251" data-name="Path 251" d="M227.6,113.8a13,13,0,1,1-26,0h0a13,13,0,1,1,26,0Z" transform="translate(-184.267 0)" fill="#ffb600"/>
    <path id="Path_252" data-name="Path 252" d="M214.6,100.8a13.034,13.034,0,0,1,13,13h0a13,13,0,0,1-26,0" transform="translate(-184.267)" fill="#f7981d"/>
    <path id="Path_253" data-name="Path 253" d="M352.8,100.8a13.034,13.034,0,0,1,13,13h0a12.99,12.99,0,0,1-13,13" transform="translate(-322.467)" fill="#ff8500"/>
    <path id="Path_254" data-name="Path 254" d="M12.862,100.8a13,13,0,0,0,.138,26,13.151,13.151,0,0,0,8.735-3.37h0a12.361,12.361,0,0,0,1.307-1.376H20.36a15.871,15.871,0,0,1-.963-1.307h4.608a8.812,8.812,0,0,0,.757-1.376H18.64A8.2,8.2,0,0,1,18.09,118h7.153a13.658,13.658,0,0,0,.688-4.127,17.754,17.754,0,0,0-.275-2.751H17.677a10.056,10.056,0,0,1,.344-1.376h7.153a8.2,8.2,0,0,0-.55-1.376H18.571a13.639,13.639,0,0,1,.757-1.376h4.608a6.541,6.541,0,0,0-1.032-1.376H20.36a11.723,11.723,0,0,1,1.307-1.307,12.692,12.692,0,0,0-8.735-3.37C12.931,100.8,12.931,100.8,12.862,100.8Z" transform="translate(0)" fill="#ff5050"/>
    <path id="Path_255" data-name="Path 255" d="M0,115.262a12.99,12.99,0,0,0,13,13,13.151,13.151,0,0,0,8.735-3.37h0a12.36,12.36,0,0,0,1.307-1.376H20.36a15.865,15.865,0,0,1-.963-1.307h4.608a8.811,8.811,0,0,0,.757-1.376H18.64a8.2,8.2,0,0,1-.55-1.376h7.153a13.658,13.658,0,0,0,.688-4.127,17.754,17.754,0,0,0-.275-2.751H17.677a10.056,10.056,0,0,1,.344-1.376h7.153a8.2,8.2,0,0,0-.55-1.376H18.571a13.641,13.641,0,0,1,.757-1.376h4.608a6.541,6.541,0,0,0-1.032-1.376H20.36a11.723,11.723,0,0,1,1.307-1.307,12.692,12.692,0,0,0-8.735-3.37h-.069" transform="translate(0 -1.462)" fill="#e52836"/>
    <path id="Path_256" data-name="Path 256" d="M149.738,128.262a13.151,13.151,0,0,0,8.735-3.37h0a12.36,12.36,0,0,0,1.307-1.376H157.1a15.865,15.865,0,0,1-.963-1.307h4.608a8.811,8.811,0,0,0,.757-1.376h-6.122a8.2,8.2,0,0,1-.55-1.376h7.153a13.658,13.658,0,0,0,.688-4.127,17.755,17.755,0,0,0-.275-2.751h-7.979a10.058,10.058,0,0,1,.344-1.376h7.153a8.2,8.2,0,0,0-.55-1.376h-6.053a13.643,13.643,0,0,1,.757-1.376h4.608a6.541,6.541,0,0,0-1.032-1.376H157.1a11.724,11.724,0,0,1,1.307-1.307,12.692,12.692,0,0,0-8.735-3.37H149.6" transform="translate(-136.738 -1.462)" fill="#cb2026"/>
    <g id="Group_1721" data-name="Group 1721" transform="translate(1.238 110.43)">
      <path id="Path_257" data-name="Path 257" d="M183.595,226.053l.206-1.169a2.979,2.979,0,0,1-.344.069c-.481,0-.55-.275-.481-.413l.413-2.407h.757l.206-1.307h-.688L183.8,220h-1.376s-.825,4.54-.825,5.09a1.033,1.033,0,0,0,1.1,1.169A2.111,2.111,0,0,0,183.595,226.053Z" transform="translate(-167.224 -219.381)" fill="#fff"/>
      <path id="Path_258" data-name="Path 258" d="M210.4,231.8a2.188,2.188,0,0,0,2.407,2.407,3.571,3.571,0,0,0,1.444-.206l.275-1.307a4.123,4.123,0,0,1-1.444.344c-1.513,0-1.238-1.1-1.238-1.1h2.82a8.919,8.919,0,0,0,.206-1.238,1.864,1.864,0,0,0-1.995-1.995C211.432,228.57,210.4,230.083,210.4,231.8Zm2.407-1.995c.757,0,.619.894.619.963h-1.513C211.913,230.7,212.051,229.808,212.807,229.808Z" transform="translate(-193.548 -227.332)" fill="#fff"/>
      <path id="Path_259" data-name="Path 259" d="M299.783,219.472l.275-1.513a3.38,3.38,0,0,1-1.169.344c-.963,0-1.376-.757-1.376-1.582,0-1.651.825-2.545,1.788-2.545a2.3,2.3,0,0,1,1.238.413l.206-1.444a4.836,4.836,0,0,0-1.582-.344c-1.582,0-3.164,1.376-3.164,3.989,0,1.72.825,2.889,2.476,2.889A6.173,6.173,0,0,0,299.783,219.472Z" transform="translate(-271.788 -212.8)" fill="#fff"/>
      <path id="Path_260" data-name="Path 260" d="M89.014,227.2a4.871,4.871,0,0,0-1.651.275l-.206,1.169a4.066,4.066,0,0,1,1.513-.275c.481,0,.894.069.894.482,0,.275-.069.344-.069.344h-.619c-1.169,0-2.476.481-2.476,2.064,0,1.238.825,1.513,1.307,1.513a2.067,2.067,0,0,0,1.444-.619l-.069.55h1.238l.55-3.783A1.63,1.63,0,0,0,89.014,227.2Zm.275,3.1c0,.206-.138,1.307-.963,1.307a.537.537,0,0,1-.55-.55c0-.344.206-.825,1.238-.825A1.085,1.085,0,0,0,89.289,230.3Z" transform="translate(-80.21 -225.962)" fill="#fff"/>
      <path id="Path_261" data-name="Path 261" d="M136.782,232.04a1.763,1.763,0,0,0,2.063-1.788c0-1.72-1.651-1.376-1.651-2.063,0-.344.275-.481.757-.481.206,0,.963.069.963.069l.206-1.238a5.225,5.225,0,0,0-1.307-.138c-1.032,0-2.063.413-2.063,1.788,0,1.582,1.72,1.444,1.72,2.063,0,.413-.481.481-.825.481a4.5,4.5,0,0,1-1.238-.206l-.206,1.238C135.269,231.9,135.613,232.04,136.782,232.04Z" transform="translate(-124.814 -225.231)" fill="#fff"/>
      <path id="Path_262" data-name="Path 262" d="M431.121,214.4l-.275,1.857a1.907,1.907,0,0,0-1.307-.688c-1.238,0-2.339,1.513-2.339,3.3,0,1.1.55,2.27,1.72,2.27a1.836,1.836,0,0,0,1.307-.55l-.069.482h1.376l1.032-6.6Zm-.619,3.646c0,.757-.344,1.72-1.1,1.72-.481,0-.757-.413-.757-1.1,0-1.1.481-1.788,1.1-1.788C430.226,216.876,430.5,217.22,430.5,218.046Z" transform="translate(-391.708 -214.262)" fill="#fff"/>
      <path id="Path_263" data-name="Path 263" d="M15.707,221l.825-4.952L16.67,221h.963l1.788-4.952L18.665,221h1.444l1.1-6.6H18.94l-1.376,4.058L17.5,214.4H15.5L14.4,221Z" transform="translate(-14.4 -214.262)" fill="#fff"/>
      <path id="Path_264" data-name="Path 264" d="M261.513,234.165c.413-2.27.481-4.127,1.444-3.783a5.4,5.4,0,0,1,.481-1.582h-.275c-.619,0-1.1.825-1.1.825l.138-.757h-1.307L260,234.234h1.513Z" transform="translate(-238.884 -227.424)" fill="#fff"/>
      <path id="Path_265" data-name="Path 265" d="M349.014,227.2a4.871,4.871,0,0,0-1.651.275l-.206,1.169a4.065,4.065,0,0,1,1.513-.275c.482,0,.894.069.894.482,0,.275-.069.344-.069.344h-.619c-1.169,0-2.476.481-2.476,2.064,0,1.238.825,1.513,1.307,1.513a2.067,2.067,0,0,0,1.444-.619l-.069.55h1.238l.55-3.783A1.606,1.606,0,0,0,349.014,227.2Zm.344,3.1c0,.206-.138,1.307-.963,1.307a.537.537,0,0,1-.55-.55c0-.344.206-.825,1.238-.825C349.289,230.3,349.289,230.3,349.358,230.3Z" transform="translate(-317.855 -225.962)" fill="#fff"/>
      <path id="Path_266" data-name="Path 266" d="M395.913,234.165c.413-2.27.482-4.127,1.444-3.783a5.4,5.4,0,0,1,.481-1.582h-.275c-.619,0-1.1.825-1.1.825l.138-.757h-1.307l-.894,5.365h1.513Z" transform="translate(-361.728 -227.424)" fill="#fff"/>
    </g>
    <g id="Group_1722" data-name="Group 1722" transform="translate(1.238 110.43)">
      <path id="Path_267" data-name="Path 267" d="M180,225.09a1.032,1.032,0,0,0,1.1,1.169,2.618,2.618,0,0,0,1.032-.206l.206-1.169a2.979,2.979,0,0,1-.344.069c-.482,0-.55-.275-.482-.413l.413-2.407h.757l.206-1.307H182.2l.138-.825" transform="translate(-165.762 -219.381)" fill="#dce5e5"/>
      <path id="Path_268" data-name="Path 268" d="M218.4,231.8c0,1.926.619,2.407,1.72,2.407a3.571,3.571,0,0,0,1.444-.206l.275-1.307a4.123,4.123,0,0,1-1.444.344c-1.513,0-1.238-1.1-1.238-1.1h2.82a8.918,8.918,0,0,0,.206-1.238,1.864,1.864,0,0,0-1.995-1.995C218.744,228.57,218.4,230.083,218.4,231.8Zm1.72-1.995c.757,0,.894.894.894.963h-1.788C219.225,230.7,219.363,229.808,220.12,229.808Z" transform="translate(-200.86 -227.332)" fill="#dce5e5"/>
      <path id="Path_269" data-name="Path 269" d="M307.1,219.472l.275-1.513a3.38,3.38,0,0,1-1.169.344c-.963,0-1.376-.757-1.376-1.582,0-1.651.825-2.545,1.788-2.545a2.3,2.3,0,0,1,1.238.413l.206-1.444a4.836,4.836,0,0,0-1.582-.344c-1.582,0-2.476,1.376-2.476,3.989,0,1.72.138,2.889,1.788,2.889A6.173,6.173,0,0,0,307.1,219.472Z" transform="translate(-279.101 -212.8)" fill="#dce5e5"/>
      <path id="Path_270" data-name="Path 270" d="M87.157,230.176a4.066,4.066,0,0,1,1.513-.275c.481,0,.894.069.894.481,0,.275-.069.344-.069.344h-.619c-1.169,0-2.476.481-2.476,2.063,0,1.238.825,1.513,1.307,1.513a2.067,2.067,0,0,0,1.444-.619l-.069.55h1.238l.55-3.783c0-1.582-1.376-1.651-1.926-1.651m1.032,2.958a2.252,2.252,0,0,1-1.651,1.307.537.537,0,0,1-.55-.55c0-.344.206-.825,1.238-.825A5.619,5.619,0,0,0,89.977,231.758Z" transform="translate(-80.21 -227.424)" fill="#dce5e5"/>
      <path id="Path_271" data-name="Path 271" d="M136,231.9a5.821,5.821,0,0,0,1.582.138,1.763,1.763,0,0,0,2.063-1.788c0-1.72-1.651-1.376-1.651-2.063,0-.344.275-.481.757-.481.206,0,.963.069.963.069l.206-1.238a5.225,5.225,0,0,0-1.307-.138c-1.032,0-1.376.413-1.376,1.788,0,1.582,1.032,1.444,1.032,2.063,0,.413-.481.481-.825.481" transform="translate(-125.545 -225.231)" fill="#dce5e5"/>
      <path id="Path_272" data-name="Path 272" d="M438.1,216.988a1.907,1.907,0,0,0-1.307-.688c-1.238,0-1.651,1.513-1.651,3.3,0,1.1-.138,2.27,1.032,2.27a1.836,1.836,0,0,0,1.307-.55l-.069.481h1.376l1.032-6.6m-1.788,3.577c0,.757-.619,1.72-1.376,1.72-.481,0-.757-.413-.757-1.1,0-1.1.481-1.788,1.1-1.788A1.051,1.051,0,0,1,438.036,218.777Z" transform="translate(-398.967 -214.994)" fill="#dce5e5"/>
      <path id="Path_273" data-name="Path 273" d="M15.707,221l.825-4.952L16.67,221h.963l1.788-4.952L18.665,221h1.444l1.1-6.6H19.49l-1.926,4.058L17.5,214.4h-.757L14.4,221Z" transform="translate(-14.4 -214.262)" fill="#dce5e5"/>
      <path id="Path_274" data-name="Path 274" d="M260.8,234.165h1.444c.413-2.27.481-4.127,1.444-3.783a5.4,5.4,0,0,1,.481-1.582H263.9c-.619,0-1.1.825-1.1.825l.138-.757" transform="translate(-239.615 -227.424)" fill="#dce5e5"/>
      <path id="Path_275" data-name="Path 275" d="M347.157,230.176a4.066,4.066,0,0,1,1.513-.275c.482,0,.894.069.894.481,0,.275-.069.344-.069.344h-.619c-1.169,0-2.476.481-2.476,2.063,0,1.238.825,1.513,1.307,1.513a2.067,2.067,0,0,0,1.444-.619l-.069.55h1.238l.55-3.783c0-1.582-1.376-1.651-1.926-1.651m1.032,2.958a2.252,2.252,0,0,1-1.651,1.307.537.537,0,0,1-.55-.55c0-.344.206-.825,1.238-.825A6.051,6.051,0,0,0,349.977,231.758Z" transform="translate(-317.855 -227.424)" fill="#dce5e5"/>
      <path id="Path_276" data-name="Path 276" d="M395.2,234.165h1.444c.413-2.27.482-4.127,1.444-3.783a5.4,5.4,0,0,1,.481-1.582H398.3c-.619,0-1.1.825-1.1.825l.138-.757" transform="translate(-362.459 -227.424)" fill="#dce5e5"/>
    </g>
  </g>
</svg>
