<svg xmlns="http://www.w3.org/2000/svg" width="85.759" height="26" viewBox="0 0 85.759 26">
  <g id="visa" transform="translate(0 -175.6)">
    <path id="Path_230" data-name="Path 230" d="M184.8,204.9l4.356-24.5h6.806l-4.22,24.5Z" transform="translate(-153.355 -3.983)" fill="#3c58bf"/>
    <path id="Path_231" data-name="Path 231" d="M184.8,204.9l5.581-24.5h5.581l-4.22,24.5Z" transform="translate(-153.355 -3.983)" fill="#293688"/>
    <path id="Path_232" data-name="Path 232" d="M268.827,176.689a17.266,17.266,0,0,0-6.262-1.089c-6.806,0-11.707,3.4-11.707,8.3,0,3.675,3.4,5.581,6.126,6.806s3.539,2.042,3.539,3.131c0,1.634-2.178,2.45-4.084,2.45a14.8,14.8,0,0,1-6.534-1.361l-.953-.408L248,200.1a22.072,22.072,0,0,0,7.759,1.361c7.215,0,11.979-3.4,11.979-8.576,0-2.859-1.77-5.037-5.853-6.806-2.45-1.225-3.948-1.906-3.948-3.131,0-1.089,1.225-2.178,3.948-2.178a12.486,12.486,0,0,1,5.173.953l.681.272,1.089-5.309Z" transform="translate(-205.801)" fill="#3c58bf"/>
    <path id="Path_233" data-name="Path 233" d="M268.827,176.689a17.266,17.266,0,0,0-6.262-1.089c-6.806,0-10.482,3.4-10.482,8.3,0,3.675,2.178,5.581,4.9,6.806s3.539,2.042,3.539,3.131c0,1.634-2.178,2.45-4.084,2.45a14.8,14.8,0,0,1-6.534-1.361l-.953-.408L248,200.1a22.072,22.072,0,0,0,7.759,1.361c7.215,0,11.979-3.4,11.979-8.576,0-2.859-1.77-5.037-5.853-6.806-2.45-1.225-3.948-1.906-3.948-3.131,0-1.089,1.225-2.178,3.948-2.178a12.486,12.486,0,0,1,5.173.953l.681.272,1.089-5.309Z" transform="translate(-205.801)" fill="#293688"/>
    <path id="Path_234" data-name="Path 234" d="M372.149,180.4c-1.633,0-2.859.136-3.539,1.77L358.4,204.9h7.351l1.361-4.084h8.712l.817,4.084h6.534l-5.717-24.5Zm-3.131,16.335c.408-1.225,2.723-7.215,2.723-7.215s.545-1.5.953-2.45l.408,2.314s1.361,6.126,1.634,7.487h-5.717Z" transform="translate(-297.416 -3.983)" fill="#3c58bf"/>
    <path id="Path_235" data-name="Path 235" d="M373.782,180.4c-1.634,0-2.859.136-3.539,1.77L358.4,204.9h7.351l1.361-4.084h8.712l.817,4.084h6.534l-5.717-24.5Zm-4.764,16.335c.544-1.361,2.723-7.215,2.723-7.215s.544-1.5.953-2.45l.408,2.314s1.361,6.126,1.634,7.487h-5.717Z" transform="translate(-297.416 -3.983)" fill="#293688"/>
    <path id="Path_236" data-name="Path 236" d="M61.409,198.216l-.681-3.539c-1.225-4.084-5.173-8.576-9.529-10.754l6.126,21.78h7.351L75.7,181.2H68.352Z" transform="translate(-42.488 -4.647)" fill="#3c58bf"/>
    <path id="Path_237" data-name="Path 237" d="M61.409,198.216l-.681-3.539c-1.225-4.084-5.173-8.576-9.529-10.754l6.126,21.78h7.351L75.7,181.2h-5.99Z" transform="translate(-42.488 -4.647)" fill="#293688"/>
    <path id="Path_238" data-name="Path 238" d="M0,180.4l1.225.272c8.712,2.042,14.7,7.215,17.016,13.34l-2.45-11.571c-.408-1.633-1.634-2.042-3.131-2.042Z" transform="translate(0 -3.983)" fill="#ffbc00"/>
    <path id="Path_239" data-name="Path 239" d="M0,180.4H0c8.712,2.042,15.927,7.351,18.241,13.476l-2.314-9.665a3.323,3.323,0,0,0-3.267-2.586Z" transform="translate(0 -3.983)" fill="#f7981d"/>
    <path id="Path_240" data-name="Path 240" d="M0,180.4H0c8.712,2.042,15.927,7.351,18.241,13.476l-1.634-5.309c-.408-1.634-.953-3.267-2.859-3.948Z" transform="translate(0 -3.983)" fill="#ed7c00"/>
    <g id="Group_1719" data-name="Group 1719" transform="translate(8.848 179.139)">
      <path id="Path_241" data-name="Path 241" d="M68.88,210.013l-4.628-4.628-2.178,5.173-.545-3.4C60.3,203.07,56.356,198.578,52,196.4l6.126,21.78h7.351Z" transform="translate(-52 -196.4)" fill="#051244"/>
      <path id="Path_242" data-name="Path 242" d="M191.742,295.19l-5.853-5.99-1.089,5.99Z" transform="translate(-162.203 -273.409)" fill="#051244"/>
      <path id="Path_243" data-name="Path 243" d="M259.843,274.8h0c.544.545.817.953.681,1.5,0,1.634-2.178,2.45-4.084,2.45a14.8,14.8,0,0,1-6.534-1.361l-.953-.408L248,282.559a22.072,22.072,0,0,0,7.759,1.361c4.356,0,7.9-1.225,9.937-3.4Z" transform="translate(-214.649 -261.46)" fill="#051244"/>
      <path id="Path_244" data-name="Path 244" d="M364,237.432h6.4l1.361-4.084h8.712l.817,4.084h6.534l-2.314-9.937-8.168-7.9.408,2.178s1.361,6.126,1.634,7.487h-5.717c.544-1.361,2.723-7.215,2.723-7.215s.544-1.5.953-2.45" transform="translate(-310.911 -215.652)" fill="#051244"/>
    </g>
  </g>
</svg>
